DataType=double
version=3
OpenSimVersion=4.5-2023-11-26-efcdfd3eb
endheader
time	EMG01_right_gast_med	EMG02_right_glut_max	EMG03_left_gast_med	EMG04_left_glut_max	EMG05_right_glut_med	EMG06_right_bic_fem	EMG07_right_rect_fem	EMG08_right_vast_lat	EMG09_right_vast_med	EMG10_right_tens_fasc_lat	EMG11_left_glut_med	EMG12_left_bic_fem	EMG13_left_rect_fem	EMG14_left_vast_lat	EMG15_left_vast_med	EMG16_left_tens_fasc_lat
1.38	7.557808530671386	19.20944334222449	121.3724948538672	11.85829869248102	39.43335104824376	37.99963582452143	6.037123391257642	8.3718270668132	15.62814035362322	7.340089536713948	11.90623991182573	6.98676825224969	5.889040872263201	3.52563414166283	17.93932307302394	34.77544953601746
1.39	8.177882528254193	18.42857437434427	124.7398719298482	11.01010045918798	41.67391064896374	40.01112989892788	6.561474822946813	8.891996782770908	17.40091426705896	8.029347381789547	11.4808733171855	7.287614927324232	5.902755917707144	3.467701231730458	16.42533925610427	29.35085292834858
1.4	8.780372618605277	17.80208693184202	127.5801910326868	10.27746666147274	44.42284701472687	42.01423553092015	7.106349055929659	9.429362277231618	19.31385375865846	8.937304605892599	11.06052226793545	7.56719079664845	5.913799540747031	3.467195156031132	15.08489352997806	24.27238002371591
1.41	9.37032591059079	17.33403768638806	129.8493715606327	9.673256014973294	47.62420650098575	43.99475232124798	7.666508642512563	9.977882580487901	21.35375459548776	10.05435029762205	10.64679649781322	7.819053243029107	5.920833242419627	3.518943287278363	13.91778384307149	19.56364954103064
1.42	9.953422193370214	17.02620279915545	131.5101408733523	9.209475844840865	51.21692300155674	45.93771692916308	8.236320493265174	10.53122055039671	23.50556827196207	11.36826371777952	10.24127846229852	8.037445496903027	5.922544444616759	3.617521594343001	12.92206561456018	15.24373255768556
1.43	10.53583797877968	16.87808624597825	132.5328597738187	8.89709358621198	55.13571518763226	47.82752200498257	8.809824977186796	11.08282668865318	25.75255178291801	12.86430529302261	9.845492171579647	8.217370385478622	5.917659060373501	3.757324485301531	12.09412178519423	11.32721031871186
1.44	11.12411602038961	16.88695689642718	132.8961971069897	8.745853778608913	59.31203844279397	49.64806044992876	9.380813058679271	11.62602787282209	28.07644296266319	14.52534025316121	9.46087199622168	8.354650050163903	5.904953713064756	3.932632091515817	11.4287446356361	7.824292708257728
1.45	11.72504235367692	17.04791365316875	132.5876367666517	8.764103403913865	63.67507878901282	51.38289624275389	9.942910335418597	12.15412040620595	30.45765982914047	16.33199560193771	9.088732549565032	8.445970168666717	5.883268124562415	4.137674338370724	10.91922851008507	4.740990189310113
1.46	12.34553274966316	17.35397785097544	131.6038048608237	8.958628447590343	68.15277517471199	53.01546289267061	10.48966675083256	12.66046660281754	32.87552218822967	18.26285091443865	8.730240769506635	8.48890760671325	5.851518080753022	4.366691222359542	10.55747265372126	2.079331355535844
1.47	12.99253027944915	17.7962119938212	129.950606637738	9.334504638075105	72.67285548855767	54.52928956974516	11.01465074970194	13.13859376489617	35.30849345881587	20.29466310727457	8.386391287375142	8.481941051844993	5.808709201852218	4.613988926684471	10.33409353660721	-0.1623822171828699
1.48	13.67291543965575	18.36386364807071	127.6431633074808	9.894965377065953	77.16387088207665	55.90825321108498	11.51154666356184	13.58229399244998	37.73444021313168	22.40262483264685	8.057986067289962	8.424444957356544	5.753951569710446	4.873991704828473	10.23854617867474	-1.989292335980181
1.49	14.39342999227622	19.04453291180347	124.7055409260456	10.64128985176683	81.55621272162159	57.13685268595673	11.97425410257211	13.98572291869015	40.13090622802775	24.56065552044632	7.745619147637914	8.3166679179203	5.686475163310813	5.141289721025407	10.25925403215857	-3.409680170138756
1.5	15.16061530410666	19.82436147029072	121.1702700984081	11.57271416722366	85.78309668505301	58.20049873985092	12.39698806616367	14.34349527787216	42.47539684126452	26.74172335078752	7.449667128664177	8.159697283693772	5.605646052185556	5.410683179998861	10.38374697649872	-4.434649808628981
1.51	15.98076549739347	20.68824091304604	117.0776673671026	12.68636804226935	89.78149889798006	59.0858112402793	12.77437833958781	14.65077515200914	44.7456682540343	28.91819557829449	7.170285827988831	7.955412304229439	5.510983334772365	5.677223131883117	10.59880702659275	-5.077806718275477
1.52	16.8598951534634	21.62003770209491	112.4749833990611	13.97723923202642	93.49302948436018	59.78091352440821	13.10156649772322	14.90335867845503	46.92001555914547	31.06221361279266	6.907413274057021	7.706428322964661	5.402176783887827	5.936249358980835	10.89062142164589	-5.354937654063471
1.53	17.80372071329893	22.6028318797575	107.4154136644951	15.43816747604209	96.86472953045374	60.27571254393236	13.37429851290249	15.09774683653611	48.97755306688478	33.14608807295881	6.660778950008319	7.416034506599042	5.279105033545776	6.183425736970078	11.24494275239254	-5.283697695682599
1.54	18.81765416871258	23.61916625712019	101.9570112267897	17.05986949019892	99.84977792238379	60.56215291373012	13.58901061531309	15.23120574064037	50.89848097740833	35.14270773364039	6.429918990035715	7.088127348035423	5.141853953374562	6.414773372988305	11.64725566662934	-4.883309147524669
1.55	19.90680713091323	24.65130244694394	96.16154000985811	18.830996263866	102.4080942289055	60.63443298436366	13.74290572918855	15.30181184139171	52.66433355819592	37.02595499218498	6.214196906518848	6.727141828861783	4.990734676649829	6.62670165286801	12.08294949309389	-4.174276120824485
1.56	21.07600281839315	25.68147974450562	90.09330335723654	20.73822354478066	104.5068228508489	60.48917230648458	13.83401756677473	15.30847972141704	54.2582056603256	38.7711192667705	6.012829354543999	6.337981746601686	4.82630062377059	6.81603713238149	12.53749586435757	-3.178117744952836
1.57	22.32979291633799	26.69217256846504	83.81797866204275	22.76637581726683	106.1206833996567	60.12552281237304	13.8612594791977	15.25097086282364	55.66495613208574	40.3552986870028	5.824916338094545	5.925950340340442	4.64936281976096	6.980050054780275	12.99663013113737	-1.917122115683051
1.58	23.6724758233065	27.66634201222494	77.40148510790748	24.89858337880248	107.2321742491772	59.54522009790727	13.82445569846222	15.12988297247344	56.87138754049651	41.75777967021875	5.649475094120845	5.496682015445725	4.461002836768301	7.116478231219904	13.44653509311506	-0.4141222756619649
1.59	25.10811282743607	28.58767709451311	70.90890826699885	27.11647141327131	107.8316206238513	58.75257507543742	13.72435371324575	14.94662106797329	57.86640108966213	42.96038366764583	5.485476701066128	5.056075705840877	4.262582764866922	7.223548107169433	13.87402535578852	1.307705269126654
1.6	26.6405394220365	29.44082148974359	64.40350207292303	29.40037926698798	107.9170646029521	57.75440920213099	13.56261783725776	14.70335299430654	58.64112418404654	43.94777070695301	5.331884304703913	4.610230226512205	4.05575169894665	7.299993013710898	14.26673044916437	3.225019767636581
1.61	28.27337015519916	30.21158162347423	57.94578507122704	31.72960737702927	107.4940015580588	56.55993841054802	13.34180504828377	14.40295276161171	59.18900678513915	44.70769052467391	5.187691752913315	4.165381825788606	3.842448332480612	7.345068772444698	14.61327467654929	5.314474168885532
1.62	30.00999668696225	30.8871118643728	51.59274384649416	34.08268841204956	106.5749755272657	55.18061183802929	13.06532473338703	14.04893500394938	59.50588246848874	45.23117409879738	5.051961377202389	3.727844006396317	3.624899374349966	7.358566898256254	14.90345146482289	7.552853384730278
1.63	31.85357959722171	31.45607238037293	45.3971525032284	36.4376781798731	105.1790536657034	53.62991144004238	12.73738425973148	13.64538333697713	59.58999114696334	45.51266102916548	4.923859656710398	3.303949541083926	3.40561362064282	7.340825585281968	15.12838976602906	9.917194905575421
1.64	33.80703474635256	31.90875557209973	39.40701335718604	38.77246081299366	103.3312053155219	51.92311791900156	12.36292247426868	13.19687478178388	59.44196242443793	45.55006107401865	4.802689556796762	2.899994482197626	3.187371580715921	7.292738480039219	15.28070986756145	12.3848941477931
1.65	35.87301488931757	32.23717808106566	33.66512068040706	41.06506177654985	101.0616133007564	50.07704792041797	11.94753330820354	12.7084018361467	59.06476100340728	45.34475086487717	4.687918446764464	2.522183861038992	2.973210566667081	7.215760979161519	15.3546658278872	14.93379722918135
1.66	38.05388711190763	32.43513697533809	28.20874644346083	43.29396153271836	98.40494424891737	48.1097677198734	11.49738155998758	12.18529324693114	58.46359800912939	44.90150909862668	4.579200668297297	2.176578688280618	2.76640512986322	7.111913469438805	15.34627161441633	17.54228413963968
1.67	40.35170647232957	32.49823054632564	23.06944452169475	45.43840243129255	95.39960243507043	46.04028947427652	11.01911266375141	11.63313417167068	57.64581376677596	44.22839514127805	4.476394053226056	1.869043822812973	2.570442706569389	6.983780588655965	15.25340785055246	20.18934536717905
1.68	42.76818573942339	32.42384596288009	18.27296778533386	47.4786815822274	92.08698879536655	43.88825698682901	10.51975791025051	11.05768633316234	56.62073778721298	43.33657697062503	4.379569975767328	1.60519631699782	2.388994348988491	6.834505288285359	15.07590593510763	22.85465483822502
1.69	45.30466028169819	32.21111748676945	13.8392908382054	49.39642293458311	88.51078349266778	41.67362842218594	10.00663629448807	10.46480894999316	55.39953061590229	42.24011486199394	4.289016850062513	1.390353991248529	2.225880473243822	6.667776305554598	14.81560623111574	25.5186415542011
1.7	47.96204627624078	31.86085983337599	9.782729829229192	51.17482251716275	84.71626661258567	39.41636335683657	9.487254007645763	9.860381496005301	53.995010754657	40.95570721678984	4.205237307421501	1.22948420897193	2.085031640838344	6.487807666512781	14.47638706037977	28.16256167227469
1.71	50.74078975531703	31.37548166030261	6.112149672101031	52.79886191598766	80.74968741151743	37.13612107354238	8.969202599679221	9.250229515963497	52.42146906330424	39.50240453457251	4.128939557808719	1.127153050049767	1.970444493078099	6.299309063982215	14.06416150209777	30.76857206133059
1.72	53.64080353354572	30.75888422030223	2.831248160275091	54.25548644755557	76.65768848342532	34.85197640249806	8.460056961131436	8.640054719785777	50.69447313869328	37.90129710986737	4.061023618400013	1.08747525983916	1.88613305891438	6.107446370809717	13.58683965390566	33.31980555348569
1.73	56.6613885122192	30.01634990270414	-0.06109412774010019	55.53374583364612	72.48678764315714	32.58215886285122	7.967274383154693	8.035370433367069	48.83066464686251	36.17518196120863	4.002563178281209	1.114065463174595	1.836075729126811	5.917792102378943	13.05425506952144	35.80044724613759
1.74	59.80113511420721	29.15442475590417	-2.57040957832363	56.62489653481253	68.28291743324765	30.34382024702948	7.498095947316362	7.441443296591594	46.84755285469598	34.34821475466988	3.954783896972848	1.209991200612644	1.8241582308688	5.736266213696992	12.47805531857276	38.19581048388932
1.75	63.05779976727914	28.18079833619159	-4.706196517876761	57.52246643566796	64.09102006129254	28.15283489007493	7.059451378568954	6.863241913209293	44.76330757834709	32.44555282927593	3.919038938575853	1.377728395115667	1.854112979482106	5.569068086014035	11.87155783188727	40.49241082657417
1.76	66.42815106892675	27.10418351496043	-6.481440926048211	58.22228389033511	59.95469426518677	26.0236356540184	6.657868346510695	6.305392939772752	42.5965546620186	30.49299567352312	3.896782528557664	1.619119898810771	1.929455272416656	5.422600888392397	11.24957331779536	42.67803652712577
1.77	69.90778195261377	25.93419821712972	-7.912118161067072	58.72247349481791	55.91588985639062	23.96908731042879	6.299387068673803	5.772144828209698	40.36617693946182	28.51662913210624	3.889542273041579	1.935337795022063	2.05341695562387	5.303389706429653	10.62819993991991	44.74181466412417
1.78	73.4908888306787	24.68125049193994	-9.016685507019334	59.02342031302441	52.0146452830904	22.00039768491503	5.989480953445248	5.267339149212553	38.09112322597201	26.54247904198606	3.898890892533649	2.32685014256796	2.228878448058961	5.217994924563286	10.02459203192707	46.67427271452413
